<?xml version="1.0" encoding="UTF-8"?>
<svg version="1.1" xmlns="http://www.w3.org/2000/svg" viewBox="80 130 460 130">
<path d="M0 0 C0.98291016 0.00322266 1.96582031 0.00644531 2.97851562 0.00976562 C4.51475586 0.02233398 4.51475586 0.02233398 6.08203125 0.03515625 C7.63567383 0.04192383 7.63567383 0.04192383 9.22070312 0.04882812 C11.77867045 0.06061599 14.33660811 0.07855143 16.89453125 0.09765625 C16.89453125 4.38765625 16.89453125 8.67765625 16.89453125 13.09765625 C22.50453125 13.09765625 28.11453125 13.09765625 33.89453125 13.09765625 C33.89453125 8.80765625 33.89453125 4.51765625 33.89453125 0.09765625 C47.75453125 0.09765625 61.61453125 0.09765625 75.89453125 0.09765625 C75.97474887 18.78390487 75.97474887 18.78390487 75.9921875 26.77148438 C76.00412613 32.21398842 76.01822422 37.65642493 76.04541016 43.09887695 C76.06719884 47.48848649 76.07911258 51.87802357 76.08428574 56.26768303 C76.08797069 57.93935219 76.09516644 59.61101754 76.10599136 61.28265572 C76.12058648 63.63066186 76.12250586 65.97837154 76.12158203 68.32641602 C76.12877258 69.01190521 76.13596313 69.69739441 76.14337158 70.40365601 C76.11877183 76.21149539 75.36658763 81.19264211 71.76953125 85.84765625 C66.01207812 90.35348913 60.07769824 91.54987134 52.82617188 91.43823242 C51.6832518 91.43888954 51.6832518 91.43888954 50.51724243 91.43955994 C48.02815054 91.43748948 45.53975374 91.41424241 43.05078125 91.390625 C41.31343961 91.38502281 39.57609321 91.38075566 37.83874512 91.37776184 C33.28815396 91.36636205 28.7378546 91.3369373 24.18737793 91.3036499 C19.53511501 91.27284358 14.88280449 91.25923402 10.23046875 91.24414062 C1.11836208 91.21206248 -7.99352897 91.16092564 -17.10546875 91.09765625 C-18.30953298 87.33905136 -18.2076891 83.77896757 -18.17480469 79.85400391 C-18.17001602 79.13153976 -18.16522736 78.40907562 -18.16029358 77.66471863 C-18.14263376 75.2802948 -18.11687801 72.89605367 -18.08984375 70.51171875 C-18.07314331 68.85029131 -18.05648127 67.18886349 -18.03985596 65.5274353 C-18.00340519 62.04557597 -17.96218591 58.56380629 -17.91845703 55.08203125 C-17.8635057 50.62792604 -17.82694149 46.17387323 -17.79482651 41.71955299 C-17.76691425 38.28783163 -17.72585686 34.85635696 -17.68122101 31.42481613 C-17.66207059 29.78308371 -17.64775171 28.14128735 -17.6384201 26.49946976 C-17.62403387 24.1992692 -17.59108775 21.9000242 -17.55371094 19.60009766 C-17.53959167 18.2931192 -17.52547241 16.98614075 -17.51092529 15.63955688 C-17.00064571 11.18196553 -15.64498566 7.78551203 -12.60546875 4.453125 C-8.25461018 1.0653471 -5.44747483 -0.03148829 0 0 Z M16.89453125 26.09765625 C16.78110371 28.7171651 16.7303508 31.30929889 16.7265625 33.9296875 C16.7232341 34.71784348 16.7199057 35.50599945 16.71647644 36.31803894 C16.71140281 37.99009618 16.70906825 39.66216359 16.70922852 41.33422852 C16.70704929 43.88900585 16.68891868 46.44334645 16.66992188 48.99804688 C16.66698657 50.62109227 16.66500269 52.24413972 16.6640625 53.8671875 C16.65687698 54.63086136 16.64969147 55.39453522 16.64228821 56.18135071 C16.65654077 61.45696576 16.65654077 61.45696576 18.89453125 66.09765625 C21.5705777 67.43567948 23.64346313 67.22726349 26.63671875 67.23046875 C27.78527344 67.23175781 28.93382812 67.23304688 30.1171875 67.234375 C31.92509766 67.22857422 31.92509766 67.22857422 33.76953125 67.22265625 C35.56583984 67.22845703 35.56583984 67.22845703 37.3984375 67.234375 C38.54957031 67.23308594 39.70070313 67.23179687 40.88671875 67.23046875 C41.9422998 67.22934082 42.99788086 67.22821289 44.08544922 67.22705078 C47.1263044 67.17970687 47.1263044 67.17970687 50.89453125 66.09765625 C50.89453125 61.47765625 50.89453125 56.85765625 50.89453125 52.09765625 C49.28771484 52.11505859 49.28771484 52.11505859 47.6484375 52.1328125 C46.25130382 52.14218924 44.85416826 52.15128956 43.45703125 52.16015625 C42.74998047 52.16853516 42.04292969 52.17691406 41.31445312 52.18554688 C39.50759566 52.19419213 37.70065522 52.14985636 35.89453125 52.09765625 C34.11962579 50.32275079 34.65953152 47.71980723 34.578125 45.3125 C34.53623047 44.14267578 34.49433594 42.97285156 34.45117188 41.76757812 C34.41185547 40.53587891 34.37253906 39.30417969 34.33203125 38.03515625 C34.28884766 36.79958984 34.24566406 35.56402344 34.20117188 34.29101562 C34.09468927 31.2266829 33.99267701 28.16226552 33.89453125 25.09765625 C31.24863111 25.07080946 28.60300029 25.05089268 25.95703125 25.03515625 C24.82491211 25.02258789 24.82491211 25.02258789 23.66992188 25.00976562 C19.98261361 24.63240025 19.98261361 24.63240025 16.89453125 26.09765625 Z " fill="#FA9519" transform="translate(110.10546875,147.90234375)"/>
<path d="M0 0 C0.33 0 0.66 0 1 0 C1.02322252 8.48443283 1.04096548 16.96885226 1.05181217 25.45330906 C1.05701937 29.39344472 1.06407755 33.33355854 1.07543945 37.27368164 C1.08634544 41.07973888 1.09229312 44.88577518 1.09487724 48.69184685 C1.09671763 50.14022081 1.10031137 51.5885937 1.10573006 53.03695869 C1.11304298 55.07357336 1.11398665 57.11010273 1.11352539 59.14672852 C1.115746 60.30366714 1.11796661 61.46060577 1.12025452 62.65260315 C0.99419061 66.16170979 0.55600421 69.53510737 0 73 C-0.99 73 -1.98 73 -3 73 C-3 73.99 -3 74.98 -3 76 C-3.99 76 -4.98 76 -6 76 C-6 76.99 -6 77.98 -6 79 C-10.19780968 80.02003059 -14.24992283 80.1358143 -18.54418945 80.11352539 C-19.6571917 80.11374443 -19.6571917 80.11374443 -20.79267883 80.1139679 C-23.2329099 80.11327404 -25.6730636 80.1055064 -28.11328125 80.09765625 C-29.81007343 80.0957902 -31.50686615 80.09436718 -33.20365906 80.09336853 C-37.6604665 80.0895581 -42.11724113 80.07974043 -46.57403564 80.06866455 C-51.12552446 80.0584187 -55.67701859 80.05386412 -60.22851562 80.04882812 C-69.15235813 80.03811681 -78.07617633 80.02105813 -87 80 C-84.16157987 72.27174873 -77.09799378 65.18374643 -69.6875 61.5 C-68.470625 61.005 -67.25375 60.51 -66 60 C-64.948125 59.4225 -63.89625 58.845 -62.8125 58.25 C-59.92592951 56.96707978 -58.11521236 56.72512832 -55 57 C-55 57.66 -55 58.32 -55 59 C-54.25427734 58.99476318 -53.50855469 58.98952637 -52.74023438 58.98413086 C-49.32683166 58.96320761 -45.91344249 58.95029127 -42.5 58.9375 C-40.74042969 58.92493164 -40.74042969 58.92493164 -38.9453125 58.91210938 C-37.79804688 58.90888672 -36.65078125 58.90566406 -35.46875 58.90234375 C-34.42138672 58.89710693 -33.37402344 58.89187012 -32.29492188 58.88647461 C-28.51393933 59.01674705 -24.75401158 59.53074855 -21 60 C-21 54.06 -21 48.12 -21 42 C-26.61 42 -32.22 42 -38 42 C-38 33.42 -38 24.84 -38 16 C-35.73125 15.731875 -33.4625 15.46375 -31.125 15.1875 C-20.18814648 13.76820464 -9.42093161 11.60171429 -2.0625 2.6875 C-1.381875 1.800625 -0.70125 0.91375 0 0 Z M-89 46 C-88.67 46 -88.34 46 -88 46 C-87.67 54.58 -87.34 63.16 -87 72 C-86.34 72 -85.68 72 -85 72 C-85.33 73.98 -85.66 75.96 -86 78 C-87.485 78.495 -87.485 78.495 -89 79 C-89 68.11 -89 57.22 -89 46 Z " fill="#F78212" transform="translate(183,157)"/>
<path d="M0 0 C1.75163456 3.77222089 2.22490027 6.666639 2.125 10.8125 C2.10695312 11.78832031 2.08890625 12.76414063 2.0703125 13.76953125 C2.03550781 14.87361328 2.03550781 14.87361328 2 16 C2.99 15.94199219 3.98 15.88398438 5 15.82421875 C18.15706806 15.27621579 18.15706806 15.27621579 23.48046875 19.2890625 C26.26103049 22.41987495 27.69614378 26.06269734 29 30 C29.309375 28.989375 29.61875 27.97875 29.9375 26.9375 C32.29035973 21.69703968 35.77762383 18.37444037 41 16 C47.94474187 14.89866215 55.42642337 14.51512775 61.75 18.0625 C65.28984375 20.78786642 67.11545915 23.99535069 69 28 C69.391875 27.443125 69.78375 26.88625 70.1875 26.3125 C74.3916222 20.94861995 78.54284167 16.42543744 85.5234375 15.56640625 C93.80987766 15.55800215 99.13917388 15.62650606 105.51953125 21.3671875 C109.67816969 25.9726218 109.6813134 30.90986783 109.40625 36.90625 C108.71528572 42.16820877 107.36743038 45.04299095 103.15234375 48.52734375 C97.07365856 52.5099306 91.1055447 53.04408004 84 52 C78.5546591 50.33540799 75.20445522 47.74734107 72 43 C71.4225 42.236875 70.845 41.47375 70.25 40.6875 C69.8375 40.130625 69.425 39.57375 69 39 C68.72027344 39.53109375 68.44054687 40.0621875 68.15234375 40.609375 C65.1141264 45.96288982 62.56338867 48.37576006 57 51 C56.01 51.495 56.01 51.495 55 52 C48.02637651 52.76155015 41.95525051 52.56681623 35.9140625 48.77734375 C32.41662222 45.52972063 30.69730993 41.39253575 29 37 C28.76925781 37.60328125 28.53851563 38.2065625 28.30078125 38.828125 C25.61779998 45.40301981 22.66262253 49.15840963 16 52 C10.50021541 52.60810626 6.08879854 52.15888423 1 50 C0.01 50.66 -0.98 51.32 -2 52 C-7.34545455 52.32727273 -7.34545455 52.32727273 -10 51 C-10 34.5 -10 18 -10 1 C-6.78548731 -0.60725635 -3.56387464 -0.05748185 0 0 Z M3.5625 26.8125 C1.00293493 30.39589109 0.47862086 32.56827727 1 37 C3.45594125 40.32274404 4.9256644 41.77618008 9 42.625 C13.10703441 41.76936783 14.55401113 40.38121991 17 37 C17.51361669 33.34048107 17.43348212 31.02952003 16 27.625 C12.1479146 24.49518061 7.59015194 23.81757933 3.5625 26.8125 Z M41 30 C40.60455448 33.82264001 40.78739123 36.36217368 42 40 C45.44874069 42.52023358 48.85868387 42.44371244 53 42 C55.62283334 40.71107713 55.62283334 40.71107713 57 38 C57.60849452 34.8714197 57.65899251 32.12305147 57 29 C54.46228253 25.93981129 52.88265681 25.16549815 49 24.4375 C44.86392446 25.21301416 43.45000447 26.61322911 41 30 Z M81 30 C80.16666667 33.5 80.16666667 33.5 81 37 C83.59216083 40.69186542 85.04149064 41.82883761 89.5 42.625 C93.9297642 41.83397068 95.39210172 40.63525215 98 37 C98.89426216 32.79696786 98.18818265 31.30793525 95.9375 27.625 C93.2009909 24.73043202 93.2009909 24.73043202 89.5 24.3125 C85.06975126 25.18272743 83.58629804 26.31648461 81 30 Z " fill="#FBFBFB" transform="translate(229,160)"/>
<path d="M0 0 C2 2 2 2 2.125 5.625 C2.08375 6.73875 2.0425 7.8525 2 9 C3.299375 8.979375 4.59875 8.95875 5.9375 8.9375 C7.29165633 8.91600546 8.64756083 8.92851801 10 9 C11 10 11 10 11.125 13.5 C11 17 11 17 10 18 C7.36 18 4.72 18 2 18 C2.495 25.92 2.495 25.92 3 34 C4.32 34.33 5.64 34.66 7 35 C9.00382009 35.65509503 11.00458132 36.31974363 13 37 C13.66 35.68 14.32 34.36 15 33 C17.76276177 33.52268466 20.3260876 34.10869587 23 35 C25.33299825 35.03954234 27.66708189 35.04401732 30 35 C30.495 34.01 30.495 34.01 31 33 C30.19175781 32.81824219 29.38351562 32.63648438 28.55078125 32.44921875 C27.48214844 32.19785156 26.41351563 31.94648438 25.3125 31.6875 C24.25675781 31.44386719 23.20101562 31.20023438 22.11328125 30.94921875 C17.44700882 29.52650332 14.72341711 28.08512567 12 24 C11.17055745 20.14639521 11.15424522 16.61911031 13.00390625 13.078125 C15.99128517 9.80214812 18.44637458 9.06737835 22.8515625 8.53125 C34.63694004 8.0872617 34.63694004 8.0872617 40 12 C39.67 14.31 39.34 16.62 39 19 C34.25 20.125 34.25 20.125 32 19 C30.62657169 18.9310528 29.24997898 18.91532292 27.875 18.9375 C25.956875 18.9684375 25.956875 18.9684375 24 19 C27.97611614 21.133755 32.1445123 22.37190409 36.44140625 23.70703125 C39.62822144 25.31746763 40.53270575 26.78157424 42 30 C42.62972704 32.77079897 42.60724704 35.22240704 42 38 C39.4082057 41.31173716 36.88207733 43.43895303 33 45 C24.8287368 45.94073445 18.13551741 45.1301186 11 41 C10.67 41.99 10.34 42.98 10 44 C6.28954037 45.85522982 2.04937616 45.45268677 -2 45 C-5.5625 43.25 -5.5625 43.25 -8 41 C-8.9642436 38.17016273 -9.17575059 35.42698755 -9.31640625 32.453125 C-9.35830078 31.60878906 -9.40019531 30.76445312 -9.44335938 29.89453125 C-9.48267578 29.02183594 -9.52199219 28.14914063 -9.5625 27.25 C-9.60568359 26.36183594 -9.64886719 25.47367188 -9.69335938 24.55859375 C-9.79913615 22.37254037 -9.90122546 20.18637911 -10 18 C-13.41656024 17.83322718 -13.41656024 17.83322718 -17 18 C-17.66 18.66 -18.32 19.32 -19 20 C-22.2578125 19.7578125 -22.2578125 19.7578125 -26.125 19.125 C-27.40632813 18.92132813 -28.68765625 18.71765625 -30.0078125 18.5078125 C-30.99523437 18.34023437 -31.98265625 18.17265625 -33 18 C-33 18.99 -33 19.98 -33 21 C-31.2675 21.12375 -31.2675 21.12375 -29.5 21.25 C-23.9707169 21.92886216 -18.96014223 24.03985777 -15 28 C-14.2854803 32.26650703 -13.69613549 37.10384373 -16.23828125 40.80078125 C-22.19291015 45.80976189 -28.61825541 45.52386575 -36 45 C-38.94082969 44.36804506 -40.41111006 43.66839574 -43 42 C-44.0625 39.5625 -44.0625 39.5625 -44 37 C-43.0625 34.6875 -43.0625 34.6875 -42 33 C-36.25 33.875 -36.25 33.875 -34 35 C-31.6670134 35.04022391 -29.33293334 35.04320247 -27 35 C-26.67 34.34 -26.34 33.68 -26 33 C-26.80824219 32.82984375 -27.61648438 32.6596875 -28.44921875 32.484375 C-39.21869907 30.04208031 -39.21869907 30.04208031 -43 26 C-44.57170996 22.85658007 -44.23175783 19.44228549 -44 16 C-42.61800196 11.85400587 -40.81982389 11.03579251 -37 9 C-34.17480989 8.68957085 -31.79661683 8.56922203 -29 8.6875 C-27.97132813 8.70200195 -27.97132813 8.70200195 -26.921875 8.71679688 C-22.85972141 8.80594719 -18.99703921 9.32411582 -15 10 C-12.23135047 9.63141012 -12.23135047 9.63141012 -10 9 C-9.814375 7.0509375 -9.814375 7.0509375 -9.625 5.0625 C-9.4140625 2.84765625 -9.4140625 2.84765625 -9 1 C-5.98675805 -0.50662097 -3.31713623 -0.17770373 0 0 Z " fill="#FBFBFB" transform="translate(384,167)"/>
<path d="M0 0 C1.70349609 0.00966797 1.70349609 0.00966797 3.44140625 0.01953125 C6.4375 0.1875 6.4375 0.1875 9.4375 1.1875 C9.7675 0.8575 10.0975 0.5275 10.4375 0.1875 C11.93488124 0.0895943 13.43692892 0.05775136 14.9375 0.0625 C15.7521875 0.05992187 16.566875 0.05734375 17.40625 0.0546875 C19.4375 0.1875 19.4375 0.1875 20.4375 1.1875 C20.57581193 3.68760741 20.65064574 6.15806792 20.67578125 8.66015625 C20.683853 9.41662949 20.69192474 10.17310272 20.70024109 10.95249939 C20.71410423 12.56067603 20.72481636 14.16888237 20.73266602 15.77709961 C20.74976111 18.21591947 20.79360905 20.65334149 20.83789062 23.09179688 C20.84802793 24.65624005 20.85654077 26.22069475 20.86328125 27.78515625 C20.88078934 28.50631119 20.89829742 29.22746613 20.91633606 29.97047424 C20.89334717 35.44661668 19.43316079 39.59529603 16.4375 44.1875 C12.04063893 48.47443954 7.52446893 48.91355847 1.62109375 49.23046875 C-10.68563433 49.06436567 -10.68563433 49.06436567 -14.5625 45.1875 C-14.10795455 39.73295455 -14.10795455 39.73295455 -11.5625 37.1875 C-9.88424669 37.45648834 -8.21809152 37.802915 -6.5625 38.1875 C-4.52377701 38.32517999 -2.48063565 38.40677616 -0.4375 38.4375 C0.59632813 38.46328125 1.63015625 38.4890625 2.6953125 38.515625 C5.45361673 38.41633645 5.45361673 38.41633645 7.3046875 36.796875 C8.62936391 35.24293482 8.62936391 35.24293482 8.4375 33.1875 C7.303125 33.72375 6.16875 34.26 5 34.8125 C0.05704764 36.64970353 -3.72430269 36.15861742 -8.5625 34.1875 C-13.10013821 31.54383252 -15.70433501 28.07740787 -17.5625 23.1875 C-19.08482614 17.31567059 -18.18501592 13.46688795 -15.5625 8.1875 C-14 5.6875 -14 5.6875 -12.5625 4.1875 C-11.9025 4.1875 -11.2425 4.1875 -10.5625 4.1875 C-10.5625 3.5275 -10.5625 2.8675 -10.5625 2.1875 C-7.01795326 -0.01586689 -4.12245103 -0.05158926 0 0 Z M-3.375 10.6875 C-6.18376209 13.89751382 -6.48703292 15.96134336 -6.5625 20.1875 C-5.60607118 22.98321502 -5.20951022 23.86399489 -2.5625 25.1875 C2.61392456 25.66735719 2.61392456 25.66735719 7.375 24.125 C9.04715977 21.07576749 9.37771398 18.65508942 9.4375 15.1875 C7.53233297 11.68199266 6.25328187 10.48257004 2.5 9.125 C-0.64317798 8.95809349 -0.64317798 8.95809349 -3.375 10.6875 Z " fill="#FBFBFB" transform="translate(496.5625,175.8125)"/>
<path d="M0 0 C0.33 -0.33 0.66 -0.66 1 -1 C2.49738124 -1.0979057 3.99942892 -1.12974864 5.5 -1.125 C6.3146875 -1.12757813 7.129375 -1.13015625 7.96875 -1.1328125 C10 -1 10 -1 11 0 C11.12585564 2.3432031 11.18865049 4.65526604 11.203125 7 C11.20882507 7.70970947 11.21452515 8.41941895 11.22039795 9.15063477 C11.22986852 10.66046655 11.23639006 12.17031919 11.24023438 13.68017578 C11.24984403 15.96294953 11.28080468 18.24478532 11.3125 20.52734375 C11.43979198 37.93479129 11.43979198 37.93479129 5.9375 44.4375 C-1.75560692 48.52957815 -10.56365292 48.77795716 -19 47 C-21.85546875 45.44921875 -21.85546875 45.44921875 -24 44 C-23.25 38.25 -23.25 38.25 -21 36 C-19.32289452 36.27605453 -17.65715635 36.62221471 -16 37 C-13.77290844 37.11468855 -11.54250642 37.17478617 -9.3125 37.1875 C-8.17425781 37.20167969 -7.03601563 37.21585938 -5.86328125 37.23046875 C-2.86864745 37.30071071 -2.86864745 37.30071071 -1 35 C-1 34.01 -1 33.02 -1 32 C-1.969375 32.53625 -2.93875 33.0725 -3.9375 33.625 C-8.613118 35.62207571 -12.3517801 34.74308246 -17 33 C-19.30581065 31.83291961 -20.9794474 30.65788931 -23 29 C-23 28.34 -23 27.68 -23 27 C-23.66 27 -24.32 27 -25 27 C-27.60740296 21.22199503 -28.25909204 15.04115768 -26.34765625 8.90625 C-21.02853689 -1.50370034 -10.67680429 -3.55893476 0 0 Z M-12.8125 9.5 C-15.62126209 12.71001382 -15.92453292 14.77384336 -16 19 C-15.04357118 21.79571502 -14.64701022 22.67649489 -12 24 C-6.41559464 24.55747816 -6.41559464 24.55747816 -1.5 22.375 C0.4674199 19.25991849 0.5923739 17.62829011 0 14 C-1.9711795 10.58834317 -3.21894024 9.28251098 -6.9375 7.9375 C-10.08067798 7.77059349 -10.08067798 7.77059349 -12.8125 9.5 Z " fill="#FBFBFB" transform="translate(466,177)"/>
<path d="M0 0 C3.5 0.5 3.5 0.5 5.5 2.125 C6.84605141 5.32187209 6.41477186 7.19274789 5.5 10.5 C4.51 11.985 4.51 11.985 3.5 13.5 C4.16 14.16 4.82 14.82 5.5 15.5 C5.6995697 18.05750453 5.77986826 20.50438141 5.765625 23.0625 C5.76753845 23.80959229 5.7694519 24.55668457 5.77142334 25.32641602 C5.77278498 26.90674171 5.76909 28.48707858 5.76074219 30.06738281 C5.750042 32.49048922 5.76063779 34.91285423 5.7734375 37.3359375 C5.7721159 38.86979331 5.7695535 40.40364865 5.765625 41.9375 C5.76967346 42.66461182 5.77372192 43.39172363 5.77789307 44.14086914 C5.72992361 49.27007639 5.72992361 49.27007639 3.5 51.5 C-2.82258065 51.83870968 -2.82258065 51.83870968 -5.5 50.5 C-5.57404737 45.55211686 -5.62855246 40.60455476 -5.66479492 35.65625 C-5.67990003 33.9722736 -5.70038546 32.28833665 -5.72631836 30.60449219 C-5.76262721 28.18675007 -5.77970847 25.76952708 -5.79296875 23.3515625 C-5.80845261 22.5963028 -5.82393646 21.84104309 -5.83988953 21.06289673 C-5.84057617 18.93994141 -5.84057617 18.93994141 -5.5 15.5 C-4.51 14.84 -3.52 14.18 -2.5 13.5 C-3.49 12.84 -4.48 12.18 -5.5 11.5 C-6.433966 7.89755972 -6.93135511 5.55142809 -5.5 2.0625 C-3.5 0.5 -3.5 0.5 0 0 Z " fill="#FBFBFB" transform="translate(209.5,160.5)"/>
<path d="M0 0 C0.98291016 0.00322266 1.96582031 0.00644531 2.97851562 0.00976562 C4.51475586 0.02233398 4.51475586 0.02233398 6.08203125 0.03515625 C7.63567383 0.04192383 7.63567383 0.04192383 9.22070312 0.04882812 C11.77867045 0.06061599 14.33660811 0.07855143 16.89453125 0.09765625 C16.89453125 4.38765625 16.89453125 8.67765625 16.89453125 13.09765625 C22.50453125 13.09765625 28.11453125 13.09765625 33.89453125 13.09765625 C33.89453125 13.75765625 33.89453125 14.41765625 33.89453125 15.09765625 C30.9364969 15.29187063 27.97832962 15.47831811 25.01953125 15.66015625 C24.17777344 15.71623047 23.33601563 15.77230469 22.46875 15.83007812 C21.66308594 15.87841797 20.85742188 15.92675781 20.02734375 15.9765625 C19.28371582 16.02369385 18.54008789 16.0708252 17.77392578 16.11938477 C15.89453125 16.09765625 15.89453125 16.09765625 13.89453125 15.09765625 C14.22453125 11.13765625 14.55453125 7.17765625 14.89453125 3.09765625 C6.95147207 2.45498818 6.95147207 2.45498818 -0.10546875 5.09765625 C-0.43546875 4.43765625 -0.76546875 3.77765625 -1.10546875 3.09765625 C-1.51796875 3.55140625 -1.93046875 4.00515625 -2.35546875 4.47265625 C-4.10546875 6.09765625 -4.10546875 6.09765625 -6.16796875 7.09765625 C-8.4378903 8.07090683 -8.4378903 8.07090683 -10.10546875 11.09765625 C-10.76546875 11.09765625 -11.42546875 11.09765625 -12.10546875 11.09765625 C-14.17281128 14.19867005 -14.46633969 15.49938202 -14.79296875 19.09765625 C-14.87933594 19.96390625 -14.96570313 20.83015625 -15.0546875 21.72265625 C-15.24193736 24.24897579 -15.24193736 24.24897579 -14.10546875 27.09765625 C-14.43546875 27.75765625 -14.76546875 28.41765625 -15.10546875 29.09765625 C-15.19648487 30.94622705 -15.22300021 32.79812004 -15.21899414 34.64892578 C-15.21891861 35.80997833 -15.21884308 36.97103088 -15.21876526 38.16726685 C-15.21360397 39.42562347 -15.20844269 40.6839801 -15.203125 41.98046875 C-15.20171005 43.26500946 -15.2002951 44.54955017 -15.19883728 45.87301636 C-15.19501786 49.28922467 -15.18519248 52.70539051 -15.1741333 56.12158203 C-15.16390682 59.60709051 -15.15933701 63.09260585 -15.15429688 66.578125 C-15.14356971 73.4179862 -15.12650017 80.25781919 -15.10546875 87.09765625 C-12.07782545 88.6114779 -8.94645322 88.22749878 -5.62646484 88.21118164 C-4.85564072 88.21132767 -4.08481659 88.21147369 -3.29063416 88.21162415 C-0.73669646 88.21092614 1.81716876 88.203139 4.37109375 88.1953125 C6.13943441 88.19344792 7.90777558 88.19202421 9.67611694 88.19102478 C14.33517884 88.18720275 18.99420967 88.17737513 23.65325928 88.1663208 C28.40555399 88.15609994 33.15785372 88.15152571 37.91015625 88.14648438 C47.23829492 88.13575259 56.5664105 88.11867992 65.89453125 88.09765625 C64.89453125 90.09765625 64.89453125 90.09765625 63.30792236 90.71556091 C59.96397408 91.24498486 56.65592294 91.22815617 53.28027344 91.21118164 C52.51891083 91.21132767 51.75754822 91.21147369 50.97311401 91.21162415 C48.46251554 91.2109288 45.95199173 91.20315412 43.44140625 91.1953125 C41.69834433 91.19344698 39.95528188 91.19202371 38.21221924 91.19102478 C33.62881009 91.18721019 29.04543274 91.17738892 24.46203613 91.1663208 C19.78328888 91.15608395 15.10453648 91.15152229 10.42578125 91.14648438 C1.24868397 91.13576571 -7.92838975 91.11870197 -17.10546875 91.09765625 C-18.30953298 87.33905136 -18.2076891 83.77896757 -18.17480469 79.85400391 C-18.17001602 79.13153976 -18.16522736 78.40907562 -18.16029358 77.66471863 C-18.14263376 75.2802948 -18.11687801 72.89605367 -18.08984375 70.51171875 C-18.07314331 68.85029131 -18.05648127 67.18886349 -18.03985596 65.5274353 C-18.00340519 62.04557597 -17.96218591 58.56380629 -17.91845703 55.08203125 C-17.8635057 50.62792604 -17.82694149 46.17387323 -17.79482651 41.71955299 C-17.76691425 38.28783163 -17.72585686 34.85635696 -17.68122101 31.42481613 C-17.66207059 29.78308371 -17.64775171 28.14128735 -17.6384201 26.49946976 C-17.62403387 24.1992692 -17.59108775 21.9000242 -17.55371094 19.60009766 C-17.53959167 18.2931192 -17.52547241 16.98614075 -17.51092529 15.63955688 C-17.00064571 11.18196553 -15.64498566 7.78551203 -12.60546875 4.453125 C-8.25461018 1.0653471 -5.44747483 -0.03148829 0 0 Z " fill="#F0B754" transform="translate(110.10546875,147.90234375)"/>
<path d="M0 0 C0.98291016 0.00322266 1.96582031 0.00644531 2.97851562 0.00976562 C4.51475586 0.02233398 4.51475586 0.02233398 6.08203125 0.03515625 C7.63567383 0.04192383 7.63567383 0.04192383 9.22070312 0.04882812 C11.77867045 0.06061599 14.33660811 0.07855143 16.89453125 0.09765625 C16.89453125 4.38765625 16.89453125 8.67765625 16.89453125 13.09765625 C22.50453125 13.09765625 28.11453125 13.09765625 33.89453125 13.09765625 C33.89453125 13.75765625 33.89453125 14.41765625 33.89453125 15.09765625 C30.9364969 15.29187063 27.97832962 15.47831811 25.01953125 15.66015625 C24.17777344 15.71623047 23.33601563 15.77230469 22.46875 15.83007812 C21.66308594 15.87841797 20.85742188 15.92675781 20.02734375 15.9765625 C19.28371582 16.02369385 18.54008789 16.0708252 17.77392578 16.11938477 C15.89453125 16.09765625 15.89453125 16.09765625 13.89453125 15.09765625 C14.22453125 11.13765625 14.55453125 7.17765625 14.89453125 3.09765625 C6.95147207 2.45498818 6.95147207 2.45498818 -0.10546875 5.09765625 C-0.43546875 4.43765625 -0.76546875 3.77765625 -1.10546875 3.09765625 C-1.51796875 3.55140625 -1.93046875 4.00515625 -2.35546875 4.47265625 C-4.10546875 6.09765625 -4.10546875 6.09765625 -6.16796875 7.09765625 C-8.4378903 8.07090683 -8.4378903 8.07090683 -10.10546875 11.09765625 C-10.76546875 11.09765625 -11.42546875 11.09765625 -12.10546875 11.09765625 C-14.17281128 14.19867005 -14.46633969 15.49938202 -14.79296875 19.09765625 C-14.87933594 19.96390625 -14.96570313 20.83015625 -15.0546875 21.72265625 C-15.24193736 24.24897579 -15.24193736 24.24897579 -14.10546875 27.09765625 C-14.76546875 27.75765625 -15.42546875 28.41765625 -16.10546875 29.09765625 C-17.24877388 25.66774087 -17.30928526 22.89901465 -17.35546875 19.28515625 C-17.39414063 17.48111328 -17.39414063 17.48111328 -17.43359375 15.640625 C-17.01303707 11.09961421 -15.69296217 7.83811128 -12.60546875 4.453125 C-8.25461018 1.0653471 -5.44747483 -0.03148829 0 0 Z " fill="#F6B346" transform="translate(110.10546875,147.90234375)"/>
<path d="M0 0 C0.66 0 1.32 0 2 0 C2.02505615 0.59014893 2.0501123 1.18029785 2.07592773 1.78833008 C2.19200052 4.46326814 2.31467572 7.1378638 2.4375 9.8125 C2.47681641 10.74126953 2.51613281 11.67003906 2.55664062 12.62695312 C2.59853516 13.51962891 2.64042969 14.41230469 2.68359375 15.33203125 C2.72025146 16.15421143 2.75690918 16.9763916 2.79467773 17.82348633 C2.93427772 20.17905178 2.93427772 20.17905178 4 23 C6.9219769 24.46098845 9.49893475 24.11134901 12.7578125 24.09765625 C13.42086395 24.0962413 14.08391541 24.09482635 14.76705933 24.09336853 C16.88641863 24.08776754 19.00567259 24.075215 21.125 24.0625 C22.56119639 24.05748512 23.99739444 24.05292219 25.43359375 24.04882812 C28.95580248 24.03864833 32.47778321 24.01907338 36 24 C36 19.38 36 14.76 36 10 C35.34 10.33 34.68 10.66 34 11 C31.7927077 11.07092842 29.58332548 11.08415025 27.375 11.0625 C26.18648437 11.05347656 24.99796875 11.04445312 23.7734375 11.03515625 C22.85820312 11.02355469 21.94296875 11.01195312 21 11 C20.67 10.34 20.34 9.68 20 9 C25.61 9 31.22 9 37 9 C37.185625 11.59875 37.37125 14.1975 37.5625 16.875 C37.62381104 17.69210449 37.68512207 18.50920898 37.74829102 19.35107422 C38.11111111 24.77777778 38.11111111 24.77777778 37 27 C32.23028665 26.98057686 27.4624177 26.92885621 22.69335938 26.84741211 C21.07171687 26.82424116 19.44992407 26.80983846 17.828125 26.80444336 C15.49384004 26.79514627 13.16191559 26.754147 10.828125 26.70703125 C10.10506165 26.7109639 9.38199829 26.71489655 8.63702393 26.71894836 C4.9661591 26.61297131 3.28687077 26.25770897 0.52148438 23.7734375 C-1.13649388 20.75119216 -1.42182585 19.3131345 -1.171875 15.91796875 C-1.11386719 14.98662109 -1.05585937 14.05527344 -0.99609375 13.09570312 C-0.91488281 12.13599609 -0.83367187 11.17628906 -0.75 10.1875 C-0.68425781 9.20845703 -0.61851563 8.22941406 -0.55078125 7.22070312 C-0.38626852 4.81176668 -0.20211749 2.4060244 0 0 Z " fill="#ECA957" transform="translate(125,190)"/>
<path d="M0 0 C2 2 2 2 2.3125 4.9375 C2 8 2 8 0.875 9.875 C-1.88090884 11.52854531 -3.85075452 11.39365568 -7 11 C-8.875 9.875 -8.875 9.875 -10 8 C-10.4375 5 -10.4375 5 -10 2 C-6.94783427 -1.63912068 -4.35383535 -1.23043173 0 0 Z " fill="#F9F9F9" transform="translate(437,201)"/>
<path d="M0 0 C0.33 0 0.66 0 1 0 C1.13923512 9.91847635 1.24573987 19.83671888 1.31087303 29.75597477 C1.34213965 34.36232674 1.38452593 38.9680084 1.45263672 43.57397461 C1.51799767 48.02199799 1.55374116 52.4693781 1.56926346 56.91784477 C1.58031997 58.611934 1.60191165 60.3059894 1.63438034 61.99980354 C1.90931 76.94121733 1.90931 76.94121733 -1.91162109 81.59545898 C-5 84 -5 84 -7 84 C-7 83.01 -7 82.02 -7 81 C-6.01 81 -5.02 81 -4 81 C-4.33 79.68 -4.66 78.36 -5 77 C-4.01 77 -3.02 77 -2 77 C-0.72792189 71.15795622 -0.89148265 65.39707049 -0.9375 59.453125 C-0.94128662 58.32791443 -0.94507324 57.20270386 -0.94897461 56.043396 C-0.96520116 51.25300498 -0.99304853 46.46270113 -1.02050781 41.67236328 C-1.09345618 27.74114481 -1.02040689 13.89848853 0 0 Z " fill="#EB8E22" transform="translate(184,152)"/>
<path d="M0 0 C0 4.62 0 9.24 0 14 C-0.66 14 -1.32 14 -2 14 C-2 14.66 -2 15.32 -2 16 C-2.66 16 -3.32 16 -4 16 C-3.67 13.36 -3.34 10.72 -3 8 C-5.10516181 6.58754454 -5.10516181 6.58754454 -8 6 C-10.5689863 6.9893689 -12.74353436 8.43865411 -15 10 C-15.99 10.66 -16.98 11.32 -18 12 C-17.61887346 9.41058145 -17.22672014 8.22142294 -15.328125 6.3671875 C-6.46073298 0 -6.46073298 0 0 0 Z M-20 12 C-19.34 12 -18.68 12 -18 12 C-18 12.99 -18 13.98 -18 15 C-18.66 15 -19.32 15 -20 15 C-20 14.01 -20 13.02 -20 12 Z " fill="#DB4F09" transform="translate(127,176)"/>
<path d="M0 0 C1.98 0 3.96 0 6 0 C6 0.66 6 1.32 6 2 C5.071875 2.4021875 5.071875 2.4021875 4.125 2.8125 C1.7004767 3.95556848 1.7004767 3.95556848 0 7 C-0.66 7 -1.32 7 -2 7 C-4.06734253 10.1010138 -4.36087094 11.40172577 -4.6875 15 C-4.77386719 15.86625 -4.86023438 16.7325 -4.94921875 17.625 C-5.13646861 20.15131954 -5.13646861 20.15131954 -4 23 C-4.66 23.66 -5.32 24.32 -6 25 C-7.16698437 21.49904689 -7.13268287 18.6877768 -7.125 15 C-7.12886719 13.14375 -7.12886719 13.14375 -7.1328125 11.25 C-7 8 -7 8 -6 5 C-4.33333333 4.33333333 -2.66666667 3.66666667 -1 3 C-0.67 2.01 -0.34 1.02 0 0 Z " fill="#FBAA1B" transform="translate(100,152)"/>
<path d="M0 0 C-3.33855066 1.30284904 -5.76494522 2.00870573 -9.375 1.875 C-14.01686308 2.03506424 -17.04741485 3.70031409 -21 6 C-20.97679687 6.61488281 -20.95359375 7.22976562 -20.9296875 7.86328125 C-20.91164062 8.67152344 -20.89359375 9.47976562 -20.875 10.3125 C-20.85179687 11.11300781 -20.82859375 11.91351563 -20.8046875 12.73828125 C-21 15 -21 15 -23 18 C-23 12.39 -23 6.78 -23 1 C-19.91746141 0.63717201 -16.83433297 0.2844315 -13.75 -0.0625 C-12.87730469 -0.16626953 -12.00460938 -0.27003906 -11.10546875 -0.37695312 C-10.26113281 -0.47041016 -9.41679687 -0.56386719 -8.546875 -0.66015625 C-7.77182617 -0.74918213 -6.99677734 -0.83820801 -6.19824219 -0.92993164 C-3.92884036 -1.00226819 -2.16317911 -0.65714106 0 0 Z " fill="#CF4C0B" transform="translate(168,172)"/>
<path d="M0 0 C0.33 0 0.66 0 1 0 C1 3.96 1 7.92 1 12 C6.94 12 12.88 12 19 12 C19 12.66 19 13.32 19 14 C16.04196565 14.19421438 13.08379837 14.38066186 10.125 14.5625 C9.28324219 14.61857422 8.44148437 14.67464844 7.57421875 14.73242188 C6.76855469 14.78076172 5.96289062 14.82910156 5.1328125 14.87890625 C4.01737061 14.94960327 4.01737061 14.94960327 2.87939453 15.02172852 C1 15 1 15 -1 14 C-0.67 9.38 -0.34 4.76 0 0 Z " fill="#ECA237" transform="translate(125,149)"/>
<path d="M0 0 C0.66 0 1.32 0 2 0 C2 7.26 2 14.52 2 22 C1.34 22.33 0.68 22.66 0 23 C-1.32575494 18.17818019 -0.90062439 13.61167933 -0.5625 8.6875 C-0.51029297 7.85154297 -0.45808594 7.01558594 -0.40429688 6.15429688 C-0.27532629 4.10249211 -0.13844979 2.05118694 0 0 Z " fill="#E28740" transform="translate(125,190)"/>
<path d="M0 0 C0.45375 0.495 0.9075 0.99 1.375 1.5 C2.87635519 3.22609337 2.87635519 3.22609337 5 3 C5 3.66 5 4.32 5 5 C5.66 5.33 6.32 5.66 7 6 C5.8125 8 5.8125 8 4 10 C1.3125 10.25 1.3125 10.25 -1 10 C-1.02689216 8.52093108 -1.04634621 7.04172517 -1.0625 5.5625 C-1.07410156 4.73878906 -1.08570313 3.91507813 -1.09765625 3.06640625 C-1 1 -1 1 0 0 Z " fill="#EC750C" transform="translate(146,189)"/>
<path d="M0 0 C0 0.66 0 1.32 0 2 C-0.66 2 -1.32 2 -2 2 C-2.21914062 2.63292969 -2.43828125 3.26585937 -2.6640625 3.91796875 C-4 6 -4 6 -6.4609375 6.86328125 C-7.42257813 7.01152344 -8.38421875 7.15976563 -9.375 7.3125 C-10.33148438 7.47363281 -11.28796875 7.63476562 -12.2734375 7.80078125 C-14.83960155 7.98828034 -16.5777134 7.79786217 -19 7 C-18.35933594 6.82984375 -17.71867188 6.6596875 -17.05859375 6.484375 C-11.97342849 5.05961931 -4.84790899 0 0 0 Z " fill="#E27109" transform="translate(179,164)"/>
<path d="M0 0 C1.32 0 2.64 0 4 0 C4 4.62 4 9.24 4 14 C3.34 14 2.68 14 2 14 C2 14.66 2 15.32 2 16 C1.34 16 0.68 16 0 16 C0.66 11.05 1.32 6.1 2 1 C1.34 0.67 0.68 0.34 0 0 Z " fill="#D35B18" transform="translate(123,176)"/>
<path d="M0 0 C0.33 0 0.66 0 1 0 C1.19601608 1.74906659 1.38147403 3.49931846 1.5625 5.25 C1.66691406 6.22453125 1.77132812 7.1990625 1.87890625 8.203125 C1.99109494 10.79432193 1.62842142 12.52856116 1 15 C1.33 15.99 1.66 16.98 2 18 C1.34 18.66 0.68 19.32 0 20 C-1.16698437 16.49904689 -1.13268287 13.6877768 -1.125 10 C-1.12886719 8.14375 -1.12886719 8.14375 -1.1328125 6.25 C-1 3 -1 3 0 0 Z " fill="#F1AA39" transform="translate(94,157)"/>
<path d="M0 0 C1.65 0 3.3 0 5 0 C5 0.33 5 0.66 5 1 C10.94 1.33 16.88 1.66 23 2 C23 2.33 23 2.66 23 3 C15.74 3 8.48 3 1 3 C0.67 2.01 0.34 1.02 0 0 Z " fill="#ECA238" transform="translate(92,235)"/>
<path d="M0 0 C2.31 0.66 4.62 1.32 7 2 C7 2.66 7 3.32 7 4 C2.9472484 4.98248524 -0.83861737 5.08159574 -5 5 C-3.35 3.35 -1.7 1.7 0 0 Z " fill="#F86D14" transform="translate(170,232)"/>
<path d="M0 0 C0.67578125 1.765625 0.67578125 1.765625 1 4 C-0.14453125 5.921875 -0.14453125 5.921875 -1.8125 7.75 C-2.62654297 8.67039063 -2.62654297 8.67039063 -3.45703125 9.609375 C-5 11 -5 11 -7 11 C-7 10.01 -7 9.02 -7 8 C-6.01 8 -5.02 8 -4 8 C-4.33 6.68 -4.66 5.36 -5 4 C-4.01 4 -3.02 4 -2 4 C-1.34 2.68 -0.68 1.36 0 0 Z " fill="#ED9C61" transform="translate(184,225)"/>
<path d="M0 0 C5.94 0 11.88 0 18 0 C18 0.33 18 0.66 18 1 C10.08 1.495 10.08 1.495 2 2 C1.67 2.99 1.34 3.98 1 5 C0.01 4.67 -0.98 4.34 -2 4 C-1.34 2.68 -0.68 1.36 0 0 Z " fill="#F5A228" transform="translate(126,171)"/>
<path d="M0 0 C0.66 0.33 1.32 0.66 2 1 C-0.57784846 3.64752004 -2.91648098 5.94432065 -6 8 C-5.65120368 4.74456771 -4.97866739 3.98126893 -2.4375 1.75 C-1.633125 1.1725 -0.82875 0.595 0 0 Z M-8 8 C-7.34 8 -6.68 8 -6 8 C-6 8.99 -6 9.98 -6 11 C-6.66 11 -7.32 11 -8 11 C-8 10.01 -8 9.02 -8 8 Z " fill="#E56C08" transform="translate(115,180)"/>
<path d="M0 0 C0.33 0 0.66 0 1 0 C1 3.63 1 7.26 1 11 C1.99 11 2.98 11 4 11 C3.67 12.32 3.34 13.64 3 15 C2.34 15 1.68 15 1 15 C-0.09506492 11.71480525 -0.09960608 9.26336585 -0.0625 5.8125 C-0.05347656 4.72582031 -0.04445312 3.63914063 -0.03515625 2.51953125 C-0.02355469 1.68808594 -0.01195312 0.85664063 0 0 Z " fill="#F18E27" transform="translate(162,201)"/>
<path d="M0 0 C0.33 0 0.66 0 1 0 C1 2.31 1 4.62 1 7 C-0.875 7.625 -0.875 7.625 -3 8 C-3.66 7.34 -4.32 6.68 -5 6 C-3.35830472 3.97945196 -1.69088222 1.97956942 0 0 Z " fill="#E9870E" transform="translate(183,157)"/>
<path d="M0 0 C1.76462683 3.08809695 2 4.23312136 2 8 C1.34 8 0.68 8 0 8 C-0.33 8.66 -0.66 9.32 -1 10 C-1.02689216 8.52093108 -1.04634621 7.04172517 -1.0625 5.5625 C-1.07410156 4.73878906 -1.08570313 3.91507813 -1.09765625 3.06640625 C-1 1 -1 1 0 0 Z " fill="#DF6C13" transform="translate(146,189)"/>
<path d="M0 0 C0.66 0.33 1.32 0.66 2 1 C1.3125 3.4375 1.3125 3.4375 0 6 C-2.625 6.8125 -2.625 6.8125 -5 7 C-3.70700306 4.11562221 -2.34058637 2.12780579 0 0 Z " fill="#F5B95A" transform="translate(100,150)"/>
</svg>
